<?xml version="1.0" encoding="UTF-8"?>
<svg version="1.1" xmlns="http://www.w3.org/2000/svg" width="512" height="512">
<path d="M0 0 C0.9355925 -0.00974854 1.871185 -0.01949707 2.83512878 -0.02954102 C23.24416486 -0.1984297 42.96079539 -0.03089418 63.0078125 4.23828125 C63.93158691 4.42551758 64.85536133 4.61275391 65.80712891 4.80566406 C101.4803425 12.13655694 136.04867954 27.05718327 165.0078125 49.23828125 C165.5857959 49.67495117 166.1637793 50.11162109 166.75927734 50.56152344 C175.26586251 57.002323 183.31244993 63.84319145 191.0078125 71.23828125 C191.60239258 71.80562988 192.19697266 72.37297852 192.80957031 72.95751953 C201.15799553 80.96365501 208.80764092 89.18319073 215.69726562 98.47900391 C217.02578341 100.26240538 218.38141287 102.02237641 219.7421875 103.78125 C227.10148221 113.40694237 233.21551204 123.60687263 239.0078125 134.23828125 C239.3697168 134.89876465 239.73162109 135.55924805 240.10449219 136.23974609 C257.60985188 168.57859478 268.92626162 206.31643928 269.24609375 243.23046875 C269.25584229 244.16606125 269.26559082 245.10165375 269.27563477 246.06559753 C269.44452345 266.47463361 269.27698793 286.19126414 265.0078125 306.23828125 C264.82057617 307.16205566 264.63333984 308.08583008 264.44042969 309.03759766 C257.10953681 344.71081125 242.18891048 379.27914829 220.0078125 408.23828125 C219.57114258 408.81626465 219.13447266 409.39424805 218.68457031 409.98974609 C212.24377075 418.49633126 205.4029023 426.54291868 198.0078125 434.23828125 C197.44046387 434.83286133 196.87311523 435.42744141 196.28857422 436.04003906 C188.28243874 444.38846428 180.06290302 452.03810967 170.76708984 458.92773438 C168.98368837 460.25625216 167.22371734 461.61188162 165.46484375 462.97265625 C155.83915138 470.33195096 145.63922112 476.44598079 135.0078125 482.23828125 C134.3473291 482.60018555 133.6868457 482.96208984 133.00634766 483.33496094 C100.66749897 500.84032063 62.92965447 512.15673037 26.015625 512.4765625 C25.0800325 512.48631104 24.14444 512.49605957 23.18049622 512.50610352 C2.77146014 512.6749922 -16.94517039 512.50745668 -36.9921875 508.23828125 C-37.91596191 508.05104492 -38.83973633 507.86380859 -39.79150391 507.67089844 C-75.4647175 500.34000556 -110.03305454 485.41937923 -138.9921875 463.23828125 C-139.5701709 462.80161133 -140.1481543 462.36494141 -140.74365234 461.91503906 C-149.25023751 455.4742395 -157.29682493 448.63337105 -164.9921875 441.23828125 C-165.58676758 440.67093262 -166.18134766 440.10358398 -166.79394531 439.51904297 C-175.14237053 431.51290749 -182.79201592 423.29337177 -189.68164062 413.99755859 C-191.01015841 412.21415712 -192.36578787 410.45418609 -193.7265625 408.6953125 C-201.08585721 399.06962013 -207.19988704 388.86968987 -212.9921875 378.23828125 C-213.3540918 377.57779785 -213.71599609 376.91731445 -214.08886719 376.23681641 C-231.59422688 343.89796772 -242.91063662 306.16012322 -243.23046875 269.24609375 C-243.24021729 268.31050125 -243.24996582 267.37490875 -243.26000977 266.41096497 C-243.42889845 246.00192889 -243.26136293 226.28529836 -238.9921875 206.23828125 C-238.80495117 205.31450684 -238.61771484 204.39073242 -238.42480469 203.43896484 C-231.09391181 167.76575125 -216.17328548 133.19741421 -193.9921875 104.23828125 C-193.55551758 103.66029785 -193.11884766 103.08231445 -192.66894531 102.48681641 C-186.22814575 93.98023124 -179.3872773 85.93364382 -171.9921875 78.23828125 C-171.42483887 77.64370117 -170.85749023 77.04912109 -170.27294922 76.43652344 C-162.26681374 68.08809822 -154.04727802 60.43845283 -144.75146484 53.54882812 C-142.96806337 52.22031034 -141.20809234 50.86468088 -139.44921875 49.50390625 C-129.82352638 42.14461154 -119.62359612 36.03058171 -108.9921875 30.23828125 C-108.3317041 29.87637695 -107.6712207 29.51447266 -106.99072266 29.14160156 C-74.65187397 11.63624187 -36.91402947 0.31983213 0 0 Z " fill="#6A3DE8" transform="translate(242.9921875,-0.23828125)"/>
<path d="M0 0 C1.15442345 -0.01210762 1.15442345 -0.01210762 2.33216858 -0.02445984 C3.95490333 -0.0382041 5.57766581 -0.0489688 7.20043945 -0.05688477 C8.82422655 -0.06832783 10.44797837 -0.08865591 12.0715332 -0.1184082 C26.74829887 -0.38618326 40.49684637 1.33231832 53.97265625 7.55078125 C54.62121582 7.84927979 55.26977539 8.14777832 55.93798828 8.45532227 C57.87790663 9.36072825 59.80171325 10.29337411 61.72265625 11.23828125 C62.89054688 11.80804688 64.0584375 12.3778125 65.26171875 12.96484375 C72.46095468 16.65719192 78.63988587 20.91833387 84.72265625 26.23828125 C85.55539062 26.96144531 86.388125 27.68460938 87.24609375 28.4296875 C89.77244235 30.66453434 92.25186941 32.94227676 94.72265625 35.23828125 C95.46257812 35.90085938 96.2025 36.5634375 96.96484375 37.24609375 C111.93021449 51.25282864 120.73198111 69.81910624 126.47265625 89.17578125 C126.6833374 89.88524902 126.89401855 90.5947168 127.11108398 91.32568359 C129.5288862 99.70330388 129.93825653 107.4850394 129.96289062 116.16650391 C129.97250024 118.20518338 130.00352955 120.24281049 130.03515625 122.28125 C130.13421804 134.38707774 128.02152395 145.70242555 123.78515625 157.05078125 C123.52065674 157.77305908 123.25615723 158.49533691 122.98364258 159.23950195 C122.24217817 161.24396739 121.48523341 163.24177444 120.72265625 165.23828125 C120.24699219 166.51832031 120.24699219 166.51832031 119.76171875 167.82421875 C107.95075959 196.97236567 81.4551555 219.1096156 53.2734375 231.20166016 C42.57898417 235.54781721 32.06407906 238.38882379 20.46484375 238.40625 C19.68053986 238.4095784 18.89623596 238.4129068 18.08816528 238.41633606 C16.43248069 238.42138006 14.77678602 238.42374517 13.12109375 238.42358398 C10.62612483 238.42575646 8.13160881 238.44390026 5.63671875 238.46289062 C-6.79167672 238.50928955 -18.08591925 237.5216401 -29.77734375 232.98828125 C-30.59630127 232.67528076 -31.41525879 232.36228027 -32.2590332 232.03979492 C-62.58074916 220.25981276 -86.02753199 197.44914696 -100.0078125 168.140625 C-102.14612463 163.2521145 -103.8428404 158.37759697 -105.27734375 153.23828125 C-105.46071289 152.62291504 -105.64408203 152.00754883 -105.83300781 151.37353516 C-112.99804284 126.65961993 -111.77672321 96.68323066 -101.27734375 73.23828125 C-101.00825195 72.6251709 -100.73916016 72.01206055 -100.46191406 71.38037109 C-87.37957776 41.97098344 -62.37695748 17.81505576 -32.27734375 6.23828125 C-21.6004096 2.3153077 -11.36771448 0.11749182 0 0 Z " fill="#FEFEFE" transform="translate(201.27734375,136.76171875)"/>
<path d="M0 0 C7.88304434 1.12614919 7.88304434 1.12614919 11.5234375 2.671875 C12.3175 3.00703125 13.1115625 3.3421875 13.9296875 3.6875 C15.14011719 4.2134375 15.14011719 4.2134375 16.375 4.75 C17.17421875 5.08515625 17.9734375 5.4203125 18.796875 5.765625 C37.7536938 13.86368352 53.5203903 26.64096107 66 43 C66.60585938 43.77859375 67.21171875 44.5571875 67.8359375 45.359375 C75.016994 55.04242857 80.36882244 66.26730025 84.2109375 77.66796875 C84.97045492 80.01491574 84.97045492 80.01491574 85.98071289 82.2800293 C89.63039962 92.01922925 89.43950567 103.10782847 89.4375 113.375 C89.43889984 114.06710571 89.44029968 114.75921143 89.44174194 115.47229004 C89.41356314 132.54521358 86.9398825 149.67741974 79 165 C78.66371582 165.66805664 78.32743164 166.33611328 77.98095703 167.02441406 C72.46648061 177.89180533 66.19448325 187.01537995 58 196 C56.87440102 197.39535036 55.74932168 198.79112023 54.625 200.1875 C42.1709201 214.1653732 22.73683207 224.56630051 5 230 C3.35 230 1.7 230 0 230 C0 219.77 0 209.54 0 199 C3.6815625 197.2365625 3.6815625 197.2365625 7.4375 195.4375 C13.90877499 192.23336475 19.64262064 188.89980959 25 184 C25.93070312 183.17242187 26.86140625 182.34484375 27.8203125 181.4921875 C39.67752839 170.55192454 47.92595475 156.86378992 54 142 C54.32613281 141.23042969 54.65226562 140.46085938 54.98828125 139.66796875 C61.19549768 124.28230906 59.14210494 102.36562464 53.93359375 86.81640625 C52.74818224 84.12086654 51.42385463 81.57686735 50 79 C49.484375 77.95585937 48.96875 76.91171875 48.4375 75.8359375 C44.48867157 68.0296887 39.71394642 61.59057776 34 55 C33.02353516 53.73929688 33.02353516 53.73929688 32.02734375 52.453125 C24.2752638 43.07295889 11.55092995 34.85030998 0 31 C0 20.77 0 10.54 0 0 Z " fill="#FCFCFE" transform="translate(331,141)"/>
</svg>
